<svg xmlns="http://www.w3.org/2000/svg" viewBox="0 0 32 32" width="32" height="32">
  <!-- Background rounded square -->
  <rect width="32" height="32" rx="6" ry="6" fill="#34d399"/>
  
  <!-- File browser icon -->
  <g fill="white">
    <!-- Folder shape -->
    <path d="M8 10c0-1.1.9-2 2-2h4l2 2h8c1.1 0 2 .9 2 2v8c0 1.1-.9 2-2 2H10c-1.1 0-2-.9-2-2V10z"/>
    
    <!-- Folder content area -->
    <path d="M8 12h16v8H8v-8z" fill-opacity="0.3"/>
    
    <!-- File/folder lines inside -->
    <rect x="10" y="14" width="4" height="1" rx="0.5"/>
    <rect x="10" y="16" width="6" height="1" rx="0.5"/>
    <rect x="10" y="18" width="3" height="1" rx="0.5"/>
  </g>
</svg>